<?xml version="1.0" encoding="utf-8"?>
<!-- Generator: Adobe Illustrator 20.1.0, SVG Export Plug-In . SVG Version: 6.00 Build 0)  -->
<svg version="1.1" id="Layer_1" xmlns="http://www.w3.org/2000/svg" xmlns:xlink="http://www.w3.org/1999/xlink" x="0px" y="0px"
	 viewBox="0 0 566.9 377" style="enable-background:new 0 0 566.9 377;" xml:space="preserve">
<style type="text/css">
	.st0{opacity:0.9;}
	.st1{fill:#FEF2F2;}
	.st2{opacity:0.75;}
</style>
<g id="Layer_2" class="st0">
</g>
<g id="svg2" inkscape:version="0.91 r13725" sodipodi:docname="logo_valkoinen.svg" xmlns:cc="http://creativecommons.org/ns#" xmlns:dc="http://purl.org/dc/elements/1.1/" xmlns:inkscape="http://www.inkscape.org/namespaces/inkscape" xmlns:rdf="http://www.w3.org/1999/02/22-rdf-syntax-ns#" xmlns:sodipodi="http://sodipodi.sourceforge.net/DTD/sodipodi-0.dtd" xmlns:svg="http://www.w3.org/2000/svg">
	<g class="st0">
		<g>
			<g>
				<g>
					<path class="st1" d="M309.9,244l-2.1-21.9l12.5-1.6l4.5,22.6L309.9,244z M259.9,244.5l4.4-23.2l26.3,1.6l0.4,20.8
						C291.1,243.7,259.9,244.5,259.9,244.5z M304.4,185.7l9.5,2.2l3.7,18.6l-11.1,0.7L304.4,185.7z M290,186.3l0.4,21l-23.2-0.6
						l3.7-19.3C270.8,187.4,290,186.3,290,186.3z M289.3,150.3l0.3,18.1l-15.6,2.3l3.1-16.2C277.1,154.5,289.3,150.3,289.3,150.3z
						 M288.8,124.8L289,136l-9.1,4.2l2.4-12.4C282.2,127.8,288.8,124.8,288.8,124.8z M288.2,96.4l0.4,21.2l-5,2.6L288.2,96.4z
						 M298,118.2l-1.9-19.9l4.3,21.8L298,118.2z M299.7,136.6l-1.2-12.4l3.1,2.1l2.5,12.7C304.1,138.9,299.7,136.6,299.7,136.6z
						 M300.9,148.6l5.9,3.4l3.7,18.9l-7.7-2.6L300.9,148.6z M348.9,282.8L298.5,86.3L296,75.1h-9.3l-3.2,16.1l-50.6,195.6l0,0
						l6.1,2.3l12.5-0.6l0,0l4.5-23.3l35.6,1.9l0.6,30.2l0,0l13.4,2.4l9.5-2.5l0,0l0,0l0,0l0,0l-2.9-30.7l16.6-4.1l4.4,22.3l0,0h10.2
						L348.9,282.8L348.9,282.8L348.9,282.8z"/>
					<g>
						<path class="st1" d="M229.3,46.4c-0.3-3.2,0.5-7.4-3.3-9.6c-6.9-4-12.2,2.6-8,8.4c-7.4-1-10.2,7-3.4,11.1
							c3.7,2.2,7.2-0.4,10-1.8c2.8-1.4,5.7-1.8,6.7-1.5C230.6,52.3,229.6,49.3,229.3,46.4"/>
						<path class="st1" d="M213.2,68.5c-1-1.3-1.8-3.2-4-3.1c-4,0.2-4.4,4.4-1.1,5.7c-3.3,1.6-2.4,5.7,1.6,5.6
							c2.2-0.1,2.9-2.1,3.7-3.5c0.8-1.3,1.9-2.3,2.4-2.4C215.3,70.6,214,69.7,213.2,68.5"/>
						<path class="st1" d="M255.3,72.3c-2-3.8-3.3-9.5-9.2-10.3c-10.7-1.4-13.9,9.8-5.6,14.7c-9.7,2.7-9.1,14.1,1.6,15.7
							c5.8,0.8,8.7-4.2,11.6-7.5c2.7-3.2,6.2-5.2,7.5-5.4C260,78.9,257.2,75.8,255.3,72.3"/>
						<path class="st1" d="M212.6,100.6c-2.1-1.4-4.3-4-7.5-2.8c-5.8,2.2-4.5,8.7,1.1,9c-4.3,4-0.9,9.7,5,7.6
							c3.2-1.1,3.4-4.5,3.9-6.9c0.6-2.4,1.8-4.3,2.4-4.8C216.8,102.8,214.5,101.9,212.6,100.6"/>
						<path class="st1" d="M278.4,33.5c-2.3-3.9-6.8-2.1-6.3,1.9c-3.4-2.5-7,0.7-4.7,4.5c1.2,2.1,3.6,1.8,5.4,1.9
							c1.7,0.1,3.3,0.7,3.7,1.1c-0.2-0.5,0.2-2.3,0.8-3.8C278.2,37.5,279.7,35.6,278.4,33.5"/>
						<path class="st1" d="M285.5,5c-1.9-7.1-9.8-6.3-10.8,0.2c-4.2-5.5-11.3-2.1-9.5,5c1,3.9,4.9,4.5,7.7,5.4
							c2.7,0.9,4.9,2.6,5.4,3.4c0-0.9,1.3-3.5,3-5.6C283.2,11.2,286.5,8.9,285.5,5"/>
						<path class="st1" d="M294,53.3c-0.8-5-6.3-5-7.4-0.6c-2.5-4-7.6-2.2-6.9,2.8c0.4,2.8,3.1,3.4,5,4.2c1.8,0.8,3.2,2.1,3.5,2.7
							c0.1-0.6,1.1-2.3,2.5-3.6C292,57.4,294.5,56.1,294,53.3"/>
						<path class="st1" d="M345.5,64.2c3.9-2.7,1.8-7.7-3.1-6.8c-2.7,0.5-3.2,3.3-4,5.2c-0.7,1.8-1.9,3.3-2.5,3.6
							c0.6,0,2.4,1,3.8,2.3c1.5,1.4,3,3.7,5.7,3.2C350.2,70.6,349.9,65.1,345.5,64.2"/>
						<path class="st1" d="M308.6,27.7c-1.8-7.2-10.3-6.9-11.6,0.9c-0.7,4.3,3,6.5,5.4,8.6c2.3,2.1,3.7,4.6,3.9,5.6
							c0.4-0.9,2.8-2.9,5.4-4.2c2.9-1.4,7.1-2.3,7.7-6.6C320.5,24.2,312.4,21.7,308.6,27.7"/>
						<path class="st1" d="M372.5,33.5c5.6-10.5-4.7-19.2-14.6-11.4c-5.4,4.3-3.5,10.9-3,15.9c0.5,4.9-0.6,9.5-1.5,10.8
							c1.4-0.7,6.4-0.5,10.9,0.8c4.9,1.4,10.8,4.9,16.2,0.5C390.4,42.2,383.5,30.4,372.5,33.5"/>
						<path class="st1" d="M383.5,78.4c5.4-3.3,3.1-10.2-3.6-9.2c-3.7,0.5-4.6,4.1-5.7,6.5s-2.9,4.2-3.6,4.6
							c0.8,0.1,3.1,1.5,4.8,3.4c1.9,2,3.7,5.2,7.3,4.7C389.4,87.3,389.4,80,383.5,78.4"/>
						<path class="st1" d="M342.1,80.8c-4.4-1.6-7.5,1.8-10.2,3.8c-2.6,2-5.6,3-6.7,2.9c0.9,0.6,2.5,3.5,3.3,6.5
							c0.9,3.3,0.9,7.9,5.3,9.5c8,2.9,12.4-5.2,6.8-10.4C348.6,92.7,350,83.7,342.1,80.8"/>
						<polygon class="st1" points="277.1,92.4 245.3,119.7 239.8,107.8 205.8,142 237.5,120.7 243.1,132.1 						"/>
						<polygon class="st1" points="222.2,0.7 249.9,32.2 238.1,37.8 272.7,71.5 251,40 262.3,34.2 						"/>
						<polygon class="st1" points="307.2,70.9 335,39.5 323.2,33.9 357.9,0.3 336.1,31.7 347.4,37.5 						"/>
						<polygon class="st1" points="307,91 338.5,118.7 344.1,107 377.7,141.6 346.3,119.8 340.5,131.2 						"/>
					</g>
					<path class="st1" d="M16.3,262.8V246h7.4c3.9,0,7.1,3.4,7.1,7.2c0,2.3-1.1,4.4-3.4,6.3C27.4,259.5,23.8,262.5,16.3,262.8z
						 M30.2,299.5h15L34,271.6c2.2-1.1,4.4-2.9,6.4-5.6c2.9-3.8,4.4-8.1,4.4-12.8c0-5.8-2.1-10.8-6.2-14.9s-9.1-6.2-14.9-6.2H2.3
						v67.3h13.9v-34.5L30.2,299.5z"/>
					<path class="st1" d="M90.6,273.5H73.2l8.7-22.3C81.9,251.2,90.6,273.5,90.6,273.5z M48,299.5h15l4.7-12.1H96l4.5,12.1h15.2
						l-26.3-67.3H74.3L48,299.5z"/>
					<polygon class="st1" points="174.8,299.5 150,266.3 174.8,232.1 157.5,232.1 134.6,263.9 133.3,264.9 133.3,232.1 119.4,232.1 
						119.4,299.5 133.3,299.5 133.3,267.5 157.5,299.5 					"/>
					<polygon class="st1" points="234.9,299.5 210.1,266.3 234.8,232.1 217.6,232.1 194.6,263.9 193.4,264.9 193.4,232.1 
						179.5,232.1 179.5,299.5 193.4,299.5 193.4,267.5 217.5,299.5 					"/>
					<path class="st1" d="M405.9,232.1H392v43.2c0,3-1,5.6-3.2,7.7s-4.7,3.2-7.7,3.2s-5.6-1-7.7-3.2s-3.2-4.7-3.2-7.7v-43.2h-13.9
						v43.2c0,6.8,2.4,12.7,7.2,17.6c4.9,4.8,10.8,7.2,17.6,7.2s12.7-2.4,17.6-7.2c4.9-4.9,7.3-10.8,7.3-17.6L405.9,232.1
						L405.9,232.1z"/>
					<path class="st1" d="M425.3,246c5.5,0.3,10.2,2.2,14,6c3.9,3.7,5.8,8.4,5.8,13.8s-1.9,10.1-5.8,13.9c-3.9,3.7-8.5,5.7-14,5.9
						V246z M425.3,299.5c9.3,0,17.2-3.3,23.8-9.7c6.6-6.5,9.9-14.5,9.9-23.9s-3.3-17.4-9.8-23.8c-6.5-6.5-14.5-9.8-23.8-9.8h-13.9
						v67.3C411.3,299.5,425.3,299.5,425.3,299.5z"/>
					<polygon class="st1" points="502.2,232.1 463.1,232.1 463.1,299.5 502.2,299.5 502.2,285.5 477,285.5 477,272.7 495.7,272.7 
						495.7,258.7 477,258.7 477,246 502.2,246 					"/>
					<polygon class="st1" points="562.2,299.5 562.2,232.1 548.2,232.1 548.2,275.4 523.2,232.1 507.2,232.1 507.2,299.5 
						521.2,299.5 521.2,256.3 546,299.5 					"/>
					<polygon class="st1" points="101.8,309 87.1,309 74.4,353 59.2,309 44.2,309 27.6,353.4 14.7,309 0,309 19.6,376.3 34.3,376.3 
						51.5,329.9 67.5,376.3 82.6,376.3 					"/>
					<path class="st1" d="M130.7,350.4H113l8.8-22.3L130.7,350.4z M87.5,376.3h15.2l4.8-12.1h28.7l4.5,12.1h15.4L129.5,309h-15.4
						L87.5,376.3z"/>
					<path class="st1" d="M159.9,376.3h14.2v-25.1h6c5.9,0,10.9-2.1,15.1-6.2c4.2-4.1,6.3-9.1,6.3-14.9s-2.1-10.8-6.3-14.9
						s-9.3-6.2-15.1-6.2h-20.2V376.3L159.9,376.3z M174.1,322.9h6c3.9,0,7.3,3.4,7.3,7.2c0,3.9-3.3,7.2-7.3,7.2h-6V322.9
						L174.1,322.9z"/>
					<path class="st1" d="M205.7,376.3h14.2v-25.1h6c5.9,0,10.9-2.1,15.1-6.2c4.2-4.1,6.3-9.1,6.3-14.9s-2.1-10.8-6.3-14.9
						s-9.3-6.2-15.1-6.2h-20.2V376.3z M219.9,322.9h6c3.9,0,7.3,3.4,7.3,7.2c0,3.9-3.3,7.2-7.3,7.2h-6V322.9L219.9,322.9z"/>
					<path class="st1" d="M302,309h-14.2v43.2c0,3-1,5.6-3.2,7.7c-2.2,2.2-4.8,3.2-7.9,3.2s-5.7-1-7.9-3.2s-3.2-4.7-3.2-7.7V309
						h-14.2v43.2c0,6.8,2.4,12.7,7.3,17.6c5,4.8,10.9,7.2,17.9,7.2s12.9-2.4,17.8-7.2c5-4.9,7.4-10.8,7.4-17.6L302,309L302,309z"/>
					<path class="st1" d="M321.7,339.7v-16.8h7.5c3.9,0,7.3,3.4,7.3,7.2c0,2.3-1.1,4.4-3.5,6.3C332.9,336.4,329.3,339.4,321.7,339.7
						z M335.8,376.3H351l-11.4-27.8c2.3-1.1,4.5-2.9,6.5-5.6c3-3.8,4.5-8.1,4.5-12.8c0-5.8-2.1-10.8-6.3-14.9s-9.3-6.2-15.1-6.2
						h-21.7v67.3h14.2v-34.5L335.8,376.3z"/>
					<path class="st1" d="M397.1,350.4h-17.7l8.8-22.3C388.2,328.1,397.1,350.4,397.1,350.4z M353.9,376.3h15.2l4.8-12.1h28.7
						l4.5,12.1h15.4L395.9,309h-15.4L353.9,376.3z"/>
					<path class="st1" d="M440.5,322.9c5.6,0.3,10.3,2.2,14.2,6c3.9,3.7,5.9,8.4,5.9,13.8s-1.9,10.1-5.9,13.9
						c-3.9,3.7-8.7,5.7-14.2,5.9V322.9z M440.5,376.3c9.4,0,17.5-3.3,24.1-9.7c6.7-6.5,10-14.5,10-23.9s-3.3-17.4-10-23.8
						c-6.6-6.5-14.7-9.8-24.2-9.8h-14.2v67.3h14.3V376.3z"/>
					<rect x="478.8" y="309" class="st1" width="14.2" height="67.3"/>
					<path class="st1" d="M532,377c9.7,0,17.9-3.4,24.7-10c6.8-6.7,10.2-14.8,10.2-24.4s-3.4-17.6-10.2-24.4
						c-6.8-6.7-15-10.1-24.7-10.1s-17.9,3.4-24.7,10.1c-6.7,6.7-10.1,14.8-10.1,24.4s3.4,17.6,10.1,24.4
						C514.1,373.7,522.3,377,532,377z M511.2,342.7c0-5.6,2-10.4,6.1-14.5c4.1-4,9-6,14.7-6s10.6,2,14.7,6c4.1,4,6.1,8.9,6.1,14.5
						s-2,10.4-6.1,14.5c-4.1,4-9,6-14.7,6s-10.6-2-14.7-6C513.2,353.1,511.2,348.3,511.2,342.7z"/>
				</g>
				<g class="st2">
					<path class="st1" d="M309.9,244l-2.1-21.9l12.5-1.6l4.5,22.6L309.9,244z M259.9,244.5l4.4-23.2l26.3,1.6l0.4,20.8
						C291.1,243.7,259.9,244.5,259.9,244.5z M304.4,185.7l9.5,2.2l3.7,18.6l-11.1,0.7L304.4,185.7z M290,186.3l0.4,21l-23.2-0.6
						l3.7-19.3C270.8,187.4,290,186.3,290,186.3z M289.3,150.3l0.3,18.1l-15.6,2.3l3.1-16.2C277.1,154.5,289.3,150.3,289.3,150.3z
						 M288.8,124.8L289,136l-9.1,4.2l2.4-12.4C282.2,127.8,288.8,124.8,288.8,124.8z M288.2,96.4l0.4,21.2l-5,2.6L288.2,96.4z
						 M298,118.2l-1.9-19.9l4.3,21.8L298,118.2z M299.7,136.6l-1.2-12.4l3.1,2.1l2.5,12.7C304.1,138.9,299.7,136.6,299.7,136.6z
						 M300.9,148.6l5.9,3.4l3.7,18.9l-7.7-2.6L300.9,148.6z M348.9,282.8L298.5,86.3L296,75.1h-9.3l-3.2,16.1l-50.6,195.6l0,0
						l6.1,2.3l12.5-0.6l0,0l4.5-23.3l35.6,1.9l0.6,30.2l0,0l13.4,2.4l9.5-2.5l0,0l0,0l0,0l0,0l-2.9-30.7l16.6-4.1l4.4,22.3l0,0h10.2
						L348.9,282.8L348.9,282.8L348.9,282.8z"/>
					<g>
						<path class="st1" d="M229.3,46.4c-0.3-3.2,0.5-7.4-3.3-9.6c-6.9-4-12.2,2.6-8,8.4c-7.4-1-10.2,7-3.4,11.1
							c3.7,2.2,7.2-0.4,10-1.8c2.8-1.4,5.7-1.8,6.7-1.5C230.6,52.3,229.6,49.3,229.3,46.4"/>
						<path class="st1" d="M213.2,68.5c-1-1.3-1.8-3.2-4-3.1c-4,0.2-4.4,4.4-1.1,5.7c-3.3,1.6-2.4,5.7,1.6,5.6
							c2.2-0.1,2.9-2.1,3.7-3.5c0.8-1.3,1.9-2.3,2.4-2.4C215.3,70.6,214,69.7,213.2,68.5"/>
						<path class="st1" d="M255.3,72.3c-2-3.8-3.3-9.5-9.2-10.3c-10.7-1.4-13.9,9.8-5.6,14.7c-9.7,2.7-9.1,14.1,1.6,15.7
							c5.8,0.8,8.7-4.2,11.6-7.5c2.7-3.2,6.2-5.2,7.5-5.4C260,78.9,257.2,75.8,255.3,72.3"/>
						<path class="st1" d="M212.6,100.6c-2.1-1.4-4.3-4-7.5-2.8c-5.8,2.2-4.5,8.7,1.1,9c-4.3,4-0.9,9.7,5,7.6
							c3.2-1.1,3.4-4.5,3.9-6.9c0.6-2.4,1.8-4.3,2.4-4.8C216.8,102.8,214.5,101.9,212.6,100.6"/>
						<path class="st1" d="M278.4,33.5c-2.3-3.9-6.8-2.1-6.3,1.9c-3.4-2.5-7,0.7-4.7,4.5c1.2,2.1,3.6,1.8,5.4,1.9
							c1.7,0.1,3.3,0.7,3.7,1.1c-0.2-0.5,0.2-2.3,0.8-3.8C278.2,37.5,279.7,35.6,278.4,33.5"/>
						<path class="st1" d="M285.5,5c-1.9-7.1-9.8-6.3-10.8,0.2c-4.2-5.5-11.3-2.1-9.5,5c1,3.9,4.9,4.5,7.7,5.4
							c2.7,0.9,4.9,2.6,5.4,3.4c0-0.9,1.3-3.5,3-5.6C283.2,11.2,286.5,8.9,285.5,5"/>
						<path class="st1" d="M294,53.3c-0.8-5-6.3-5-7.4-0.6c-2.5-4-7.6-2.2-6.9,2.8c0.4,2.8,3.1,3.4,5,4.2c1.8,0.8,3.2,2.1,3.5,2.7
							c0.1-0.6,1.1-2.3,2.5-3.6C292,57.4,294.5,56.1,294,53.3"/>
						<path class="st1" d="M345.5,64.2c3.9-2.7,1.8-7.7-3.1-6.8c-2.7,0.5-3.2,3.3-4,5.2c-0.7,1.8-1.9,3.3-2.5,3.6
							c0.6,0,2.4,1,3.8,2.3c1.5,1.4,3,3.7,5.7,3.2C350.2,70.6,349.9,65.1,345.5,64.2"/>
						<path class="st1" d="M308.6,27.7c-1.8-7.2-10.3-6.9-11.6,0.9c-0.7,4.3,3,6.5,5.4,8.6c2.3,2.1,3.7,4.6,3.9,5.6
							c0.4-0.9,2.8-2.9,5.4-4.2c2.9-1.4,7.1-2.3,7.7-6.6C320.5,24.2,312.4,21.7,308.6,27.7"/>
						<path class="st1" d="M372.5,33.5c5.6-10.5-4.7-19.2-14.6-11.4c-5.4,4.3-3.5,10.9-3,15.9c0.5,4.9-0.6,9.5-1.5,10.8
							c1.4-0.7,6.4-0.5,10.9,0.8c4.9,1.4,10.8,4.9,16.2,0.5C390.4,42.2,383.5,30.4,372.5,33.5"/>
						<path class="st1" d="M383.5,78.4c5.4-3.3,3.1-10.2-3.6-9.2c-3.7,0.5-4.6,4.1-5.7,6.5s-2.9,4.2-3.6,4.6
							c0.8,0.1,3.1,1.5,4.8,3.4c1.9,2,3.7,5.2,7.3,4.7C389.4,87.3,389.4,80,383.5,78.4"/>
						<path class="st1" d="M342.1,80.8c-4.4-1.6-7.5,1.8-10.2,3.8c-2.6,2-5.6,3-6.7,2.9c0.9,0.6,2.5,3.5,3.3,6.5
							c0.9,3.3,0.9,7.9,5.3,9.5c8,2.9,12.4-5.2,6.8-10.4C348.6,92.7,350,83.7,342.1,80.8"/>
						<polygon class="st1" points="277.1,92.4 245.3,119.7 239.8,107.8 205.8,142 237.5,120.7 243.1,132.1 						"/>
						<polygon class="st1" points="222.2,0.7 249.9,32.2 238.1,37.8 272.7,71.5 251,40 262.3,34.2 						"/>
						<polygon class="st1" points="307.2,70.9 335,39.5 323.2,33.9 357.9,0.3 336.1,31.7 347.4,37.5 						"/>
						<polygon class="st1" points="307,91 338.5,118.7 344.1,107 377.7,141.6 346.3,119.8 340.5,131.2 						"/>
					</g>
					<path class="st1" d="M16.3,262.8V246h7.4c3.9,0,7.1,3.4,7.1,7.2c0,2.3-1.1,4.4-3.4,6.3C27.4,259.5,23.8,262.5,16.3,262.8z
						 M30.2,299.5h15L34,271.6c2.2-1.1,4.4-2.9,6.4-5.6c2.9-3.8,4.4-8.1,4.4-12.8c0-5.8-2.1-10.8-6.2-14.9s-9.1-6.2-14.9-6.2H2.3
						v67.3h13.9v-34.5L30.2,299.5z"/>
					<path class="st1" d="M90.6,273.5H73.2l8.7-22.3C81.9,251.2,90.6,273.5,90.6,273.5z M48,299.5h15l4.7-12.1H96l4.5,12.1h15.2
						l-26.3-67.3H74.3L48,299.5z"/>
					<polygon class="st1" points="174.8,299.5 150,266.3 174.8,232.1 157.5,232.1 134.6,263.9 133.3,264.9 133.3,232.1 119.4,232.1 
						119.4,299.5 133.3,299.5 133.3,267.5 157.5,299.5 					"/>
					<polygon class="st1" points="234.9,299.5 210.1,266.3 234.8,232.1 217.6,232.1 194.6,263.9 193.4,264.9 193.4,232.1 
						179.5,232.1 179.5,299.5 193.4,299.5 193.4,267.5 217.5,299.5 					"/>
					<path class="st1" d="M405.9,232.1H392v43.2c0,3-1,5.6-3.2,7.7s-4.7,3.2-7.7,3.2s-5.6-1-7.7-3.2s-3.2-4.7-3.2-7.7v-43.2h-13.9
						v43.2c0,6.8,2.4,12.7,7.2,17.6c4.9,4.8,10.8,7.2,17.6,7.2s12.7-2.4,17.6-7.2c4.9-4.9,7.3-10.8,7.3-17.6L405.9,232.1
						L405.9,232.1z"/>
					<path class="st1" d="M425.3,246c5.5,0.3,10.2,2.2,14,6c3.9,3.7,5.8,8.4,5.8,13.8s-1.9,10.1-5.8,13.9c-3.9,3.7-8.5,5.7-14,5.9
						V246z M425.3,299.5c9.3,0,17.2-3.3,23.8-9.7c6.6-6.5,9.9-14.5,9.9-23.9s-3.3-17.4-9.8-23.8c-6.5-6.5-14.5-9.8-23.8-9.8h-13.9
						v67.3C411.3,299.5,425.3,299.5,425.3,299.5z"/>
					<polygon class="st1" points="502.2,232.1 463.1,232.1 463.1,299.5 502.2,299.5 502.2,285.5 477,285.5 477,272.7 495.7,272.7 
						495.7,258.7 477,258.7 477,246 502.2,246 					"/>
					<polygon class="st1" points="562.2,299.5 562.2,232.1 548.2,232.1 548.2,275.4 523.2,232.1 507.2,232.1 507.2,299.5 
						521.2,299.5 521.2,256.3 546,299.5 					"/>
					<polygon class="st1" points="101.8,309 87.1,309 74.4,353 59.2,309 44.2,309 27.6,353.4 14.7,309 0,309 19.6,376.3 34.3,376.3 
						51.5,329.9 67.5,376.3 82.6,376.3 					"/>
					<path class="st1" d="M130.7,350.4H113l8.8-22.3L130.7,350.4z M87.5,376.3h15.2l4.8-12.1h28.7l4.5,12.1h15.4L129.5,309h-15.4
						L87.5,376.3z"/>
					<path class="st1" d="M159.9,376.3h14.2v-25.1h6c5.9,0,10.9-2.1,15.1-6.2c4.2-4.1,6.3-9.1,6.3-14.9s-2.1-10.8-6.3-14.9
						s-9.3-6.2-15.1-6.2h-20.2V376.3L159.9,376.3z M174.1,322.9h6c3.9,0,7.3,3.4,7.3,7.2c0,3.9-3.3,7.2-7.3,7.2h-6V322.9
						L174.1,322.9z"/>
					<path class="st1" d="M205.7,376.3h14.2v-25.1h6c5.9,0,10.9-2.1,15.1-6.2c4.2-4.1,6.3-9.1,6.3-14.9s-2.1-10.8-6.3-14.9
						s-9.3-6.2-15.1-6.2h-20.2V376.3z M219.9,322.9h6c3.9,0,7.3,3.4,7.3,7.2c0,3.9-3.3,7.2-7.3,7.2h-6V322.9L219.9,322.9z"/>
					<path class="st1" d="M302,309h-14.2v43.2c0,3-1,5.6-3.2,7.7c-2.2,2.2-4.8,3.2-7.9,3.2s-5.7-1-7.9-3.2s-3.2-4.7-3.2-7.7V309
						h-14.2v43.2c0,6.8,2.4,12.7,7.3,17.6c5,4.8,10.9,7.2,17.9,7.2s12.9-2.4,17.8-7.2c5-4.9,7.4-10.8,7.4-17.6L302,309L302,309z"/>
					<path class="st1" d="M321.7,339.7v-16.8h7.5c3.9,0,7.3,3.4,7.3,7.2c0,2.3-1.1,4.4-3.5,6.3C332.9,336.4,329.3,339.4,321.7,339.7
						z M335.8,376.3H351l-11.4-27.8c2.3-1.1,4.5-2.9,6.5-5.6c3-3.8,4.5-8.1,4.5-12.8c0-5.8-2.1-10.8-6.3-14.9s-9.3-6.2-15.1-6.2
						h-21.7v67.3h14.2v-34.5L335.8,376.3z"/>
					<path class="st1" d="M397.1,350.4h-17.7l8.8-22.3C388.2,328.1,397.1,350.4,397.1,350.4z M353.9,376.3h15.2l4.8-12.1h28.7
						l4.5,12.1h15.4L395.9,309h-15.4L353.9,376.3z"/>
					<path class="st1" d="M440.5,322.9c5.6,0.3,10.3,2.2,14.2,6c3.9,3.7,5.9,8.4,5.9,13.8s-1.9,10.1-5.9,13.9
						c-3.9,3.7-8.7,5.7-14.2,5.9V322.9z M440.5,376.3c9.4,0,17.5-3.3,24.1-9.7c6.7-6.5,10-14.5,10-23.9s-3.3-17.4-10-23.8
						c-6.6-6.5-14.7-9.8-24.2-9.8h-14.2v67.3h14.3V376.3z"/>
					<rect x="478.8" y="309" class="st1" width="14.2" height="67.3"/>
					<path class="st1" d="M532,377c9.7,0,17.9-3.4,24.7-10c6.8-6.7,10.2-14.8,10.2-24.4s-3.4-17.6-10.2-24.4
						c-6.8-6.7-15-10.1-24.7-10.1s-17.9,3.4-24.7,10.1c-6.7,6.7-10.1,14.8-10.1,24.4s3.4,17.6,10.1,24.4
						C514.1,373.7,522.3,377,532,377z M511.2,342.7c0-5.6,2-10.4,6.1-14.5c4.1-4,9-6,14.7-6s10.6,2,14.7,6c4.1,4,6.1,8.9,6.1,14.5
						s-2,10.4-6.1,14.5c-4.1,4-9,6-14.7,6s-10.6-2-14.7-6C513.2,353.1,511.2,348.3,511.2,342.7z"/>
				</g>
			</g>
		</g>
	</g>
</g>
</svg>
